<?xml version="1.0" standalone="no"?><!DOCTYPE svg PUBLIC "-//W3C//DTD SVG 1.1//EN" "http://www.w3.org/Graphics/SVG/1.1/DTD/svg11.dtd"><svg t="1723719878736" class="icon" viewBox="0 0 1128 1024" version="1.1" xmlns="http://www.w3.org/2000/svg" p-id="5093" xmlns:xlink="http://www.w3.org/1999/xlink" width="220.3125" height="200"><path d="M357.717333 274.887111c38.229333-38.229333 87.381333-63.715556 144.725334-74.638222 42.780444-8.192 75.548444-5.461333 76.458666-4.551111l34.588445 3.640889V7.281778h-62.805334v124.700444c-20.024889 0.910222-39.139556 2.730667-59.164444 6.371556-70.087111 12.743111-131.982222 44.600889-179.313778 92.842666l-1.820444 1.820445c-12.743111 12.743111-42.780444 42.780444-68.266667 91.022222-31.857778 60.074667-48.241778 129.251556-48.241778 204.8v13.653333h62.805334v-13.653333c0-101.034667 32.768-186.595556 98.304-252.131555l2.730666-1.820445zM907.491556 488.789333v13.653334c0 101.034667-32.768 186.595556-98.304 252.131555l-1.820445 1.820445c-38.229333 38.229333-87.381333 63.715556-144.725333 74.638222-43.690667 8.192-76.458667 4.551111-76.458667 4.551111l-34.588444-3.640889v192.056889h62.805333V899.299556c19.114667-0.910222 39.139556-2.730667 59.164444-6.371556 70.087111-12.743111 131.982222-44.600889 179.313778-92.842667l1.820445-1.820444c12.743111-12.743111 42.780444-42.780444 68.266666-91.022222 31.857778-60.074667 48.241778-129.251556 48.241778-204.8v-13.653334h-63.715555z" p-id="5094"></path><path d="M770.958222 686.307556c49.152-49.152 76.458667-114.688 76.458667-183.864889s-27.306667-134.712889-76.458667-183.864889c-49.152-49.152-114.688-76.458667-183.864889-76.458667s-134.712889 27.306667-183.864889 76.458667c-49.152 49.152-76.458667 114.688-76.458666 183.864889s27.306667 134.712889 76.458666 183.864889c49.152 49.152 114.688 76.458667 183.864889 76.458666s134.712889-27.306667 183.864889-76.458666z m13.653334-184.775112c0 109.226667-89.201778 198.428444-198.428445 198.428445s-198.428444-89.201778-198.428444-198.428445 89.201778-198.428444 198.428444-198.428444c110.136889 0.910222 198.428444 90.112 198.428445 198.428444z" p-id="5095"></path></svg>