<?xml version="1.0" standalone="no"?><!DOCTYPE svg PUBLIC "-//W3C//DTD SVG 1.1//EN" "http://www.w3.org/Graphics/SVG/1.1/DTD/svg11.dtd"><svg t="1726126300347" class="icon" viewBox="0 0 1080 1024" version="1.1" xmlns="http://www.w3.org/2000/svg" p-id="19501" xmlns:xlink="http://www.w3.org/1999/xlink" width="200" height="200"><path d="M443.562667 612.693333L66.048 421.888c-41.642667-20.992-41.642667-80.384 0-101.376L444.074667 129.536a160.682667 160.682667 0 0 1 144.725333-0.170667l367.274667 184.32c45.909333 23.04 46.250667 88.576 0.341333 111.957334L588.970667 612.352a160.529067 160.529067 0 0 1-145.408 0.341333z" fill="#1890FF" p-id="19502"></path><path d="M515.925333 784.554667c-29.013333 0-58.026667-6.656-84.48-19.968L72.192 582.997333c-16.896-8.533333-23.552-29.013333-15.018667-45.909333 8.533333-16.896 29.013333-23.552 45.909334-15.018667L462.506667 703.658667c33.792 17.066667 73.898667 16.896 107.52-0.170667L919.552 525.653333a34.133333 34.133333 0 0 1 45.909333 15.018667 34.133333 34.133333 0 0 1-15.018666 45.909333L600.746667 764.245333c-26.453333 13.653333-55.637333 20.309333-84.821334 20.309334z" fill="#1890FF" p-id="19503"></path><path d="M515.925333 945.834667c-29.013333 0-58.026667-6.656-84.48-19.968L72.192 744.277333c-16.896-8.533333-23.552-29.013333-15.018667-45.909333s29.013333-23.552 45.909334-15.018667L462.506667 864.938667c33.792 17.066667 73.898667 16.896 107.52-0.170667l349.696-177.834667a34.133333 34.133333 0 0 1 45.909333 15.018667 34.133333 34.133333 0 0 1-15.018667 45.909333L600.746667 925.525333c-26.453333 13.482667-55.637333 20.309333-84.821334 20.309334z" fill="#1890FF" p-id="19504"></path></svg>
