<?xml version="1.0" standalone="no"?><!DOCTYPE svg PUBLIC "-//W3C//DTD SVG 1.1//EN" "http://www.w3.org/Graphics/SVG/1.1/DTD/svg11.dtd"><svg t="1724053412852" class="icon" viewBox="0 0 1024 1024" version="1.1" xmlns="http://www.w3.org/2000/svg" p-id="6699" xmlns:xlink="http://www.w3.org/1999/xlink" width="200" height="200"><path d="M909.129143 498.797714c3.017143 106.569143-35.620571 214.198857-116.278857 295.606857A394.934857 394.934857 0 0 1 302.994286 852.114286l20.754285-12.196572a374.016 374.016 0 0 0 454.473143-60.452571c73.508571-74.203429 110.244571-171.428571 110.244572-268.580572zM835.821714 127.085714a41.654857 41.654857 0 0 1 57.106286 15.451429l125.476571 219.337143a42.477714 42.477714 0 0 1-15.305142 57.636571L188.16 894.445714a41.490286 41.490286 0 0 1-57.106286-15.451428L5.595429 659.657143a42.459429 42.459429 0 0 1 15.305142-57.636572z m44.16 35.218286a31.286857 31.286857 0 0 0-42.825143-11.593143L40.338286 614.948571a31.908571 31.908571 0 0 0-11.483429 43.227429l115.017143 201.069714a31.085714 31.085714 0 0 0 42.752 11.666286l796.891429-464.292571a31.908571 31.908571 0 0 0 11.483428-43.245715zM437.705143 795.428571l19.730286 9.069715 20.827428-7.058286-3.163428 21.028571 12.946285 16.786286-21.632 4.004572-12.946285 17.371428-10.166858-18.56-20.973714-6.016 15.451429-15.451428-0.073143-21.174858z m156.982857-7.204571l7.716571 19.84 19.657143 7.808-16.713143 14.482286-2.285714 21.613714-18.102857-10.843429-21.12 5.558858 5.522286-21.321143-10.752-18.267429 21.430857-2.304 14.628571-16.566857z m118.034286-75.008l14.848 15.158857 21.046857-0.603428-9.636572 19.986285 6.4 20.864-20.809142-2.742857-17.152 13.44-3.236572-21.686857-16.932571-12.470857 18.834285-10.697143 6.637715-21.248z m50.614857-129.536a264.630857 264.630857 0 0 1-66.523429 113.645714 259.565714 259.565714 0 0 1-247.917714 69.449143l27.52-16.054857a238.482286 238.482286 0 0 0 205.604571-68.333714 243.474286 243.474286 0 0 0 53.869715-82.724572z m-313.965714-103.771429l7.936 13.257143-66.578286 38.674286c8.100571 14.354286 14.738286 26.331429 19.931428 35.949714l77.458286-45.019428 7.936 13.275428-76.141714 44.233143c28.708571 22.747429 66.852571 27.483429 114.413714 14.208-0.822857 6.765714-1.554286 13.531429-2.194286 20.297143-48 9.088-86.125714 2.633143-114.395428-19.382857 6.619429 32.091429-6.290286 69.302857-38.710857 111.652571a614.4 614.4 0 0 0-18.907429-6.893714c35.072-40.045714 48.64-76.324571 40.758857-108.818286l-76.068571 44.178286-7.917714-13.257143 78.701714-45.732571a689.682286 689.682286 0 0 0-19.474286-36.205715l-46.665143 27.117715c0.438857 12.617143-0.164571 25.234286-1.773714 37.723428a117.046857 117.046857 0 0 0-16.164571-1.901714c3.821714-25.252571 2.377143-51.072-4.315429-77.458286l16.310857-3.84c2.084571 9.344 3.657143 18.797714 4.754286 28.306286l40.283428-23.405714c-6.692571-11.483429-13.421714-22.948571-20.187428-34.377143l15.049143-8.740572 19.748571 34.633143 66.212572-38.473143z m341.577142 102.948572l18.761143 9.874286 19.931429-7.04-3.163429 22.052571 12.379429 17.974857-20.681143 3.785143-12.525714 18.139429-9.563429-19.748572-19.931428-6.765714 14.848-15.908572-0.073143-22.345142z m-274.304-139.702857l22.217143 37.193143c11.410286 19.090286 19.492571 35.254857 24.228572 48.493714l2.944-7.826286c18.157714 4.827429 33.810286 9.6 46.994285 14.336l-6.345142 14.976a449.792 449.792 0 0 0-41.362286-14.537143c5.650286 19.291429 3.254857 40.978286-7.149714 65.060572a161.170286 161.170286 0 0 0-16.822858-5.76c9.033143-17.627429 12.617143-33.426286 10.788572-47.414857-1.481143-13.403429-9.142857-31.689143-22.985143-54.857143l-25.252571-42.24 12.745142-7.405715zM637.805714 365.714286l7.497143 12.562285-17.170286 9.984c21.485714 40.210286 30.793143 73.6 27.922286 100.205715 16.896 6.180571 37.138286 6.656 60.726857 1.408-0.731429 5.138286-1.28 11.812571-1.645714 20.004571-23.533714 2.377143-43.958857 0.548571-61.275429-5.558857-3.931429 16.877714-12.653714 36.443429-26.203428 58.752a91.428571 91.428571 0 0 0-16.201143-6.363429c14.226286-21.430857 23.277714-41.124571 27.190857-59.062857-20.406857-10.733714-40.777143-30.171429-61.110857-58.331428 0.914286 8.667429 1.572571 17.371429 2.011429 26.093714a134.253714 134.253714 0 0 0-15.835429-7.716571 347.721143 347.721143 0 0 0-13.714286-82.834286l15.670857-3.693714c2.56 11.209143 4.754286 22.089143 6.619429 32.621714L637.805714 365.714286z m-109.842285 34.176l65.426285 109.458285-12.745143 7.405715-57.910857-96.896-42.496 24.685714 58.532572 97.956571-12.745143 7.405715-66.048-110.518857 67.986286-39.497143z m-296.832-172.726857a394.916571 394.916571 0 0 1 489.874285-57.709715l-20.754285 12.178286a374.052571 374.052571 0 0 0-454.473143 60.452571 380.288 380.288 0 0 0-110.244572 268.580572l-20.662857 12.123428c-3.035429-106.605714 35.602286-214.217143 116.260572-295.625142z m383.195428 169.124571l-36.297143 21.083429c22.125714 31.689143 42.971429 53.028571 62.610286 64.054857 0.731429-23.003429-8.045714-51.382857-26.331429-85.138286z m-409.033143-9.362286l9.728 19.602286 19.858286 6.692571-14.72 15.744 0.219429 22.052572-18.761143-9.874286-19.876572 6.985143 3.108572-21.833143-12.306286-17.737143 20.608-3.730285 12.141714-17.92z m121.782857-62.774857a259.565714 259.565714 0 0 1 247.936-69.430857l-27.52 16.036571a238.464 238.464 0 0 0-205.604571 68.333715 242.066286 242.066286 0 0 0-53.723429 82.742857l-27.611428 15.963428a264.630857 264.630857 0 0 1 66.541714-113.645714z m-30.299428-61.184l3.236571 21.686857 16.914286 12.470857-18.688 10.550858-6.473143 21.101714-14.793143-15.085714-21.028571 0.457142 9.545143-19.931428-6.4-20.699429 20.754285 2.816 16.932572-13.366857z m96.182857-79.250286l18.102857 10.843429 20.973714-5.430857-5.376 21.174857 10.733715 18.285714-21.339429 2.212572-14.500571 16.566857-7.716572-19.84-19.657143-7.789714 16.566858-14.482286 2.194285-21.540572z m180.662857-18.505142l8.740572 19.236571 20.315428 7.424-16.329143 14.262857-1.334857 21.101714-18.834286-10.404571-21.193142 5.485714 4.626285-20.717714-11.776-17.664 21.796572-2.377143 13.970285-16.347428z" fill="#F56C6C" p-id="6700"></path></svg>
