<?xml version="1.0" standalone="no"?><!DOCTYPE svg PUBLIC "-//W3C//DTD SVG 1.1//EN" "http://www.w3.org/Graphics/SVG/1.1/DTD/svg11.dtd"><svg t="1724378244554" class="icon" viewBox="0 0 1024 1024" version="1.1" xmlns="http://www.w3.org/2000/svg" p-id="5222" xmlns:xlink="http://www.w3.org/1999/xlink" width="200" height="200"><path d="M398.222 910.222h227.556C609.735 976.213 565.134 1024 512 1024c-53.134 0-97.735-47.787-113.778-113.778z m565.476-92.046l-112.64-164.238v-289.45c0-134.031-96.37-251.564-237.113-291.556C603.477 30.72 561.835 0 512.34 0s-91.136 30.55-101.66 72.818C269.995 112.81 173.625 230.343 173.625 364.373v289.451L60.985 818.062a21.902 21.902 0 0 0-1.252 23.495c3.869 6.998 12.971 11.72 22.187 11.72h859.591c9.102 0 18.205-4.722 22.187-11.72 3.811-6.94 5.234-15.189 0-23.438z" fill="#5a5e66" p-id="5223"></path></svg>