<?xml version="1.0" standalone="no"?><!DOCTYPE svg PUBLIC "-//W3C//DTD SVG 1.1//EN" "http://www.w3.org/Graphics/SVG/1.1/DTD/svg11.dtd"><svg t="1726125448273" class="icon" viewBox="0 0 1024 1024" version="1.1" xmlns="http://www.w3.org/2000/svg" p-id="14244" xmlns:xlink="http://www.w3.org/1999/xlink" width="200" height="200"><path d="M617.72163782 83.01274719l-122.40467907 121.82456156c-32.87953219 32.72982469-49.31929781 72.61754344-49.31929781 119.43859594 0 47.65380094 17.16023437 88.26198844 51.72397687 121.82456156l-51.72397687 51.48070219c-33.83391844-34.28304094-74.76023437-51.48070219-123.00350906-51.48070219-47.0362575 0-86.88654938 16.243275-119.40116907 48.60818719L81.91812875 615.23262969C48.68304125 647.59754188 32 687.48526156 32 734.67122656c0 46.8210525 16.31812875 86.4654975 48.84210563 118.83976594l85.80116906 86.10994125c32.51461969 33.08538 72.35555531 49.68421031 119.39181281 49.68421125 47.0362575 0 87.12046781-16.36491187 120-49.08538031l122.51695969-121.82456157c32.87953219-32.7204675 49.328655-72.61754344 49.32865501-119.43859687 0-47.65380094-17.16023437-88.27134469-51.72397689-121.82456063l51.72397688-51.48070218c33.83391844 34.39532156 74.76023437 51.48070219 123.00350813 51.48070218 47.0362575 0 86.87719312-16.243275 119.40116999-48.61754437l121.79649094-120.50526281c33.24444469-32.36491219 49.91812875-72.14035125 49.91812875-119.43859688 0-46.8210525-16.31812875-86.47485375-48.9637425-118.83976594l-85.80117-86.10994125c-32.52397688-33.08538-72.35555531-49.68421031-119.40116906-49.68421125-46.91461969-0.01871344-86.99883 16.34619844-120.11228062 49.07602407zM374.70877156 560.00923813c-1.25380125 1.52514656-5.56725188 5.53918125-12.94970718 12.61286531-7.10175469 6.93333375-12.11695875 11.77076063-14.62456125 14.5497075-2.36725125 2.76959062-5.84795344 7.07368406-10.16140407 12.89356781-4.31345062 5.96023406-7.242105 11.63976562-8.91695906 17.31929813-1.66549687 5.67953249-2.49824531 11.92046812-2.49824532 18.71345062 0 18.01169625 6.25964906 33.39415219 19.07836219 46.14736781 12.66900562 12.75321656 28.12631625 18.984795 46.36257375 18.98479594 6.83040938 0 13.09941562-0.9637425 18.79766063-2.49824625 5.56725188-1.52514656 11.55555562-4.56608156 17.40350906-8.86081875 5.84795344-4.29473719 10.31111156-7.76608219 12.94970719-10.11462 2.64795281-2.357895 7.52280656-7.20467813 14.615205-14.55906375 7.10175469-7.20467813 11.27485406-11.50877156 12.66900562-12.88421062 14.07251437 13.57660781 21.17426906 29.92280719 21.17426907 48.91695937 0 18.56374312-5.98830375 33.815205-18.37660781 46.14736781L328.2058475 888.7390625C315.52748562 901.49227906 300.07953219 907.72385843 281.83391844 907.72385843c-17.82456094 0-33.00117-6.23157937-45.81052688-18.98479594l-99.69590625-99.92982468c-12.25731-13.16491219-18.385965-28.40701781-18.385965-46.14736781 0-18.0210525 6.26900625-33.40350844 19.07836313-46.14736875l141.33333281-139.84561406c12.66900563-12.74385938 28.12631625-18.984795 46.37193-18.984795 19.07836219 0.00935719 35.78011688 7.35438562 49.98362531 22.32514594z m415.62573094-427.35906469L890.29239781 232.97298126c12.02339157 12.65964938 17.89005844 28.10760188 17.89005844 46.33450219 0 18.64795313-6.01637437 33.94619906-18.4514625 46.33450311L747.97660812 466.03029125c-12.72514594 12.80935687-28.23859687 19.05964875-46.54970718 19.05964875-19.15321594 0-35.92982437-7.51345031-50.04912282-22.54035094 1.26315749-1.52514656 5.73567281-5.69824594 13.0058475-12.65964937 7.27017563-6.96140344 12.30409312-11.82690094 14.67134532-14.61520406 2.37660844-2.77894781 5.86666687-7.0923975 10.20818718-12.93099469 4.33216406-5.98830375 7.41052594-11.69590688 8.94502875-17.39415188 1.81520437-5.70760219 2.51695875-11.96725125 2.51695969-18.78830437 0-18.08655-6.29707594-33.5345025-19.15321687-46.33450219-12.72514595-12.79999969-28.23859687-19.05964875-46.54970718-19.05964969-6.84912281 0-13.1368425 0.97309969-18.87251532 2.5076025-5.58596531 1.52514656-11.60233875 4.59415219-17.47836188 8.90760189-5.86666687 4.31345062-10.20818719 7.65380156-12.99649125 10.16140405-2.66666626 2.36725125-7.55087719 7.23274875-14.68070156 14.60584781-7.12982438 7.23274875-11.32163719 11.54619844-12.71578968 12.94035094-14.54035126-13.63274813-21.95087719-30.05380125-21.9508772-49.12280719 0-18.08655 6.29707594-33.52514625 19.15321593-46.32514593l142.59649126-141.9228075c12.71578969-12.79999969 28.22923969-19.05964875 46.54970813-19.05964876 17.89005844-0.00935719 33.27251438 6.39064312 45.70760156 19.19064282z" fill="#3399FF" p-id="14245"></path></svg>