<?xml version="1.0" standalone="no"?><!DOCTYPE svg PUBLIC "-//W3C//DTD SVG 1.1//EN" "http://www.w3.org/Graphics/SVG/1.1/DTD/svg11.dtd"><svg t="1724049049969" class="icon" viewBox="0 0 1024 1024" version="1.1" xmlns="http://www.w3.org/2000/svg" p-id="11832" xmlns:xlink="http://www.w3.org/1999/xlink" width="200" height="200"><path d="M1002.71 371.841l-151-238.09c-13.186-20.761-40.739-26.904-61.562-13.833L36.552 596.656C15.785 609.84 9.648 637.394 22.69 658.098l151 238.12c13.186 20.71 40.738 26.847 61.506 13.778L988.82 433.29c20.823-13.193 27.08-40.711 13.89-61.45z m-30.077 35.862L219.009 884.47c-6.666 4.2-15.39 2.234-19.59-4.404l-151-238.12c-4.2-6.666-2.233-15.362 4.433-19.619L806.505 145.59c6.672-4.172 15.423-2.2 19.562 4.437l151.062 238.115c4.052 6.523 2.056 15.276-4.496 19.561zM322.985 256.618l12.515 30.014 16.215-28.166 32.395-2.615-21.824-24.143 7.433-31.576-29.61 13.31-27.813-16.834 3.523 32.339-24.671 21.033 31.837 6.638z m191.886-89.352l-15.567-28.576-13.186 29.752-32.014 6.11 24.171 21.676-4.172 32.22 28.196-16.302 29.404 13.953-6.785-31.838 22.29-23.615-32.337-3.38z m292.548 478.676l-25.762-19.8-0.115 32.457-26.904 18.243 30.986 10.22 9.133 31.162 19.21-26.23 32.514 0.911-19.09-26.372 11.014-30.462-30.986 9.87zM702.267 775.35l-12.276-30.105-16.482 28.053-32.367 2.35 21.619 24.26-7.696 31.542 29.781-13.01 27.7 17.21-3.261-32.367 24.67-21-31.688-6.933z m-192.625 88l15.425 28.696 13.452-29.667 32.015-5.724-24.029-21.914 4.41-32.19-28.315 16.01-29.258-14.158 6.52 31.776-22.615 23.53 32.395 3.641zM221.095 382.418l25.615 20.119 0.38-32.485 27.024-18.153-30.814-10.43-8.9-31.308-19.443 26.052-32.514-1.176 18.828 26.495-11.224 30.548 31.048-9.662zM106.691 522.665c-3.405-137.52 63.476-273.48 188.071-352.285 124.623-78.805 276.124-81.038 399.19-19.295l29.725-18.8c-36.42-20.353-75.6-35.248-116.867-44.5-55.134-12.395-111.29-13.949-166.806-4.814-57.48 9.513-111.818 30.252-161.456 61.71-49.61 31.456-91.672 71.637-124.863 119.513-32.133 46.172-54.718 97.605-67.142 152.647C77.29 458.046 74 499.813 76.88 541.438l29.811-18.773z m809.286-21.028c3.552 137.52-63.329 273.481-187.924 352.257-124.595 78.89-276.123 81.067-399.162 19.324l-29.782 18.829c36.42 20.294 75.629 35.22 116.9 44.47 55.129 12.396 111.286 14.011 166.8 4.815 57.481-9.515 111.82-30.224 161.43-61.682s91.67-71.638 124.89-119.486c32.014-46.229 54.6-97.629 66.995-152.643 9.28-41.238 12.514-83.033 9.633-124.656l-29.78 18.772zM384.637 312.19c34.896-22.029 73.282-33.781 111.82-36.13l45.995-29.08c-60.772-7.167-121.628 6.523-174.144 39.685-52.371 33.129-90.761 82.329-110.233 140.248l45.966-29.076c18.682-33.957 45.735-63.562 80.597-85.647z m253.51 399.895c-34.895 22.09-73.253 33.838-111.79 36.186l-45.968 29.08c60.744 7.167 121.572-6.552 174.115-39.714 52.372-33.1 90.762-82.328 110.205-140.248l-45.939 29.138c-18.68 33.805-45.76 63.53-80.623 85.558zM299.196 648.17" p-id="11833" fill="#67C23A"></path><path d="M139.871 644.476l136.065-87.271 1.084-14.717 23.277 1.43-4.67 11.173c21.238 33.114 35.53 54.729 42.878 64.804l-10.793 13.934-7.966-12.418-118.358 75.912 46.196 72.026c5.04 9.236 12.981 9.983 23.808 2.256l111.834-71.729c11.54-6.617 15.262-14.464 11.204-23.545-4.071-9.07-10.747-21.533-20.036-37.393l4.66-2.988c18.053 28.148 32.095 39.789 42.12 34.913 0.781 13.521-7.268 24.907-24.122 34.166l-129.54 83.085c-12.698 8.913-23.33 6.02-31.913-8.743-36.455-56.838-57.84-89.473-64.12-97.919l26.215-6.295-3.739 10.577 4.248 6.624 118.358-75.914-35.575-55.466-107.175 68.74c-8.081 5.184-15.007 10.795-20.774 16.83l-13.166-2.072z" p-id="11834" fill="#67C23A"></path><path d="M254.028 799.253c-9.204 0-17.154-5.618-23.63-16.699-36.07-56.238-57.542-89.033-63.81-97.464l-5.508-7.408 46.1-11.07-5.829 16.484 106.788-68.494-28.994-45.204-102.044 65.45c-7.633 4.895-14.247 10.246-19.659 15.909l-2.202 2.305-32.164-5.054 147.005-94.289 1.302-17.683 37.842 2.322-6.743 16.132c20.194 31.449 33.965 52.239 40.947 61.814l2.699 3.701-18.886 24.381-9.335-14.554-108.097 69.332 43.125 67.266c2.381 4.364 4.535 4.364 5.454 4.364 1.666 0 4.658-0.72 9.463-4.15l0.25-0.17 112.095-71.886c12.512-7.174 9.918-12.98 8.67-15.771-3.964-8.832-10.604-21.216-19.73-36.8l-2.958-5.052 14.717-9.438 3.29 5.13c19.213 29.954 28.98 33.188 32.29 33.188 0.736 0 1.383-0.147 2.035-0.466l8.225-4 0.527 9.13c0.919 15.948-8.195 29.324-27.089 39.758l-129.267 82.91c-5.776 4.031-11.455 6.076-16.88 6.076z m-72.413-113.967c9.857 14.458 29.67 44.887 59.114 90.794l0.139 0.227c4.15 7.136 8.577 10.754 13.16 10.754 2.902 0 6.262-1.325 9.984-3.936l0.21-0.142 3.198-2.051c-3.154 1.375-6.145 2.053-9.03 2.053-4.668 0-11.224-1.831-16.047-10.516l-55.129-85.956 0.992-2.81-6.591 1.583z m216.271-15.97a186.681 186.681 0 0 1 2.107 4.519c2.641 5.914 4.737 16.392-6.372 26.154l0.498-0.302c11.664-6.409 18.395-13.574 20.385-21.759-5.203-0.57-10.69-3.395-16.618-8.611z m-72.904-51.032l3.199 4.987 2.726-3.52c-7.92-11.248-21.2-31.417-40.412-61.37l-1.726-2.69 2.597-6.216-8.71-0.534-0.288 3.907 0.457-0.293 42.157 65.729zM499.399 468.796l-6.133 10.944c3.079 14.383 6.69 29.595 10.846 45.623 4.498 16.595 7.482 34.928 8.972 55.005 13.376 3.105 30.922 1.397 52.616-5.123 21.687-6.496 55.794-25.45 102.304-56.852l1.593 2.484c-8.448 10.091-11.342 18.558-8.68 25.43-39.593 23.057-69.858 37.393-90.78 43.034-20.935 5.65-40.85 6.74-59.73 3.26-1.97 10.61-6.087 23-12.355 37.133-6.28 14.144-16.027 29.358-29.259 45.64l-3.457-1.288c10.036-15.786 17.617-30.979 22.74-45.549 5.125-14.569 8.613-27.909 10.496-40.032-26.139-12.045-46.659-26.926-61.53-44.665 2.717 24.748 1.98 48.206-2.222 70.365l-5.32-0.093c1.461-30.53-2.221-60.885-11.053-91.059-8.823-30.162-15.938-50.133-21.336-59.927l26.745-5.469c-0.716 4.366-0.92 9.171-0.619 14.418 0.297 5.269 2.569 16.663 6.805 34.193l40.074-25.702 4.41-15.682 24.873 3.912z m-68.034 43.634a13746.505 13746.505 0 0 0 5.288 24.65c20.367 18.104 40.755 30.73 61.139 37.903-2.186-26.64-10.033-56.66-23.557-90.05l-42.87 27.497z m102.907-58.992l40.355 62.919c5.31 8.278 11.283 16.917 17.923 25.895l-11.195 15.357a659.383 659.383 0 0 0-19.776-32.885l-57.347-89.41c-4.597-7.165-11.47-17.178-20.579-30.033l27.808-3.813-3.739 10.577 23.896 37.255c24.124-6.126 43.36-9.3 57.677-9.536 14.325-0.224 22.501 3.296 24.528 10.558 2.036 7.276 2.113 11.497 0.25 12.693-2.49 1.597-6.39 0.996-11.705-1.84-11.876-4.835-34.578-7.417-68.096-7.737z" p-id="11835" fill="#67C23A"></path><path d="M470.766 682.613l-14.612-5.444 4.04-6.354c9.733-15.307 17.18-30.212 22.134-44.301 4.339-12.333 7.515-23.906 9.463-34.473-18.592-8.995-34.44-19.575-47.336-31.588 0.879 19.064-0.339 37.463-3.645 54.887l-0.958 5.05-16.74-0.293 0.301-6.276c1.423-29.714-2.216-59.677-10.815-89.056-8.65-29.574-15.657-49.322-20.824-58.697l-3.999-7.255 43.528-8.9-1.431 8.73c-0.64 3.898-0.823 8.3-0.548 13.08 0.161 2.867 1.144 9.49 4.672 24.768l30.882-19.808 5.249-18.664 38.87 6.115-9.287 16.574c2.97 13.702 6.431 28.197 10.302 43.124 4.2 15.493 7.15 32.777 8.772 51.387 11.786 1.622 26.973-0.345 45.162-5.813 4.189-1.254 8.886-3.008 14.091-5.259l-1.996-3.552a656.94 656.94 0 0 0-19.593-32.58l-57.347-89.41c-4.468-6.965-11.148-16.712-20.421-29.8l-5.809-8.198 47.67-6.538-6.079 17.195 19.925 31.06c22.496-5.516 40.917-8.427 54.807-8.658a87.16 87.16 0 0 1 1.369-0.01c16.547 0 26.348 5.054 29.13 15.023 2.108 7.531 3.48 15.737-2.332 19.463-1.894 1.216-4.098 1.833-6.55 1.833-3.216 0-6.822-1.07-11.013-3.269-9.841-3.912-28.057-6.251-54.244-6.97l34.204 53.327c5.253 8.19 11.206 16.79 17.692 25.561l2.663 3.599-12.897 17.693c19.922-9.685 45.817-25.27 77.38-46.579l5.174-3.492 7.378 11.508-2.873 3.431c-4.725 5.646-9.892 13.58-7.67 19.318l1.877 4.851-4.495 2.616c-39.837 23.2-70.878 37.887-92.26 43.653-13.42 3.623-26.64 5.459-39.292 5.459-5.814 0-11.603-0.387-17.278-1.155-2.334 9.698-6.2 20.658-11.53 32.677-6.479 14.59-16.607 30.405-30.099 47.013l-2.762 3.397z m27.362-101.05c0.992 0.473 1.99 0.94 2.997 1.405l4.178 1.925-0.706 4.546a176.968 176.968 0 0 1-1.235 6.992c0.403-1.695 0.754-3.345 1.052-4.947l1.112-5.984 5.986 1.103a115.728 115.728 0 0 0 20.92 1.887c11.58 0 23.733-1.694 36.118-5.037 19.666-5.304 48.393-18.815 85.426-40.172-0.289-2.817 0-5.764 0.865-8.829-38.923 25.405-67.614 40.704-87.391 46.629-15.191 4.565-28.69 6.882-40.118 6.882h-0.001c-5.621 0-10.879-0.559-15.625-1.66l-4.368-1.014-0.331-4.473c-1.458-19.632-4.41-37.755-8.777-53.86-4.143-15.978-7.813-31.413-10.924-45.943l-0.482-2.25 2.976-5.31-10.87-1.71-1.42 5.042 2.374 5.86c13.686 33.79 21.755 64.69 23.983 91.837l0.768 9.37-6.507-2.29z m-55.94-47.727c16.113 14.1 32.371 24.76 48.473 31.787-2.844-21.613-9.338-45.615-19.367-71.561l-33.085 21.22a13423.994 13423.994 0 0 0 3.98 18.554z m-36.159-66.313c5.025 11.38 11.045 29.124 18.268 53.819a291.306 291.306 0 0 1 7.555 32.613 264.892 264.892 0 0 0-0.867-9.45l-1.074-9.777c-1.466-6.808-2.924-13.624-4.382-20.439l-1.008-4.711 0.045-0.028-0.447-1.852c-4.368-18.08-6.648-29.622-6.966-35.283a82.599 82.599 0 0 1-0.11-7.145l-11.014 2.253z m88.376-57.563c6.461 9.23 11.385 16.495 14.958 22.064l57.347 89.41a674.523 674.523 0 0 1 15.263 24.977l3.025-4.148c-5.626-7.739-10.831-15.33-15.504-22.616L500.98 412.826l1.4-3.961-7.975 1.095z m70.205 38.465c18.276 1.267 31.493 3.619 40.055 7.103l0.573 0.269c1.747 0.933 3.03 1.432 3.94 1.7-0.165-1.21-0.515-2.989-1.227-5.533-1.41-5.054-10.235-6.114-17.39-6.114-0.385 0-0.778 0.002-1.173 0.01-6.973 0.114-15.256 0.973-24.778 2.565zM680.812 489.143c15.813-16.365 26.415-27.84 31.84-34.44l-35.576-55.469-4.66 2.988c-8.083 5.184-15.007 10.795-20.774 16.83l-13.167-2.07 35.415-22.714-32.39-50.5-6.524 4.184c-8.082 5.183-15.006 10.793-20.773 16.828l-13.167-2.07 58.713-37.657 4.811-17.108 25.401 4.74-36.347 23.313 32.39 50.5 9.32-5.977 4.813-17.108 25.402 4.74-36.347 23.312 33.452 52.156 30.777-36.097 3.055 2.714a2324.074 2324.074 0 0 0-51.713 75.232l-3.208 11.404-20.743-7.731z m66.248-99.74c-10.714-18.05-21.37-35.37-31.99-51.927-10.619-16.557-21.907-33.452-33.853-50.73l16.895-0.319 77.352-49.612 1.745-11.635 20.35 0.968-4.27 9.749 24.956 38.91c11.334 17.67 20.484 31.263 27.481 40.796l-8.928 12.738-6.373-9.934-33.55 21.518 22.832 35.599 27.028-17.335 4.81-17.107 25.401 4.741-54.054 34.669 21.77 33.942 39.143-25.106 5.211-18.533 26.864 4.97-126.747 81.293c-8.08 5.183-15.006 10.794-20.773 16.83l-13.167-2.071 78.284-50.21-21.77-33.943-20.501 13.152c-8.082 5.183-15.008 10.793-20.774 16.828l-13.167-2.07 51.257-32.876L785.69 347.1l-34.481 22.118 5.309 8.28-9.458 11.906z m-45.761-98.01l21.238 33.115 34.483-22.117-21.24-33.114-34.481 22.117z m24.423 38.083l22.303 34.77 34.48-22.118-22.3-34.77-34.483 22.118z m21.242-67.372l21.24 33.114 33.549-21.519-21.24-33.114-33.549 21.519z m24.425 38.083l22.301 34.77 33.55-21.52-22.302-34.769-33.549 21.519z" p-id="11836" fill="#67C23A"></path><path d="M705.63 504.897l-35.67-13.293 6.47-6.695c13.168-13.628 22.782-23.927 28.661-30.706l-29.852-46.545c-7.436 4.813-13.89 10.062-19.189 15.608l-2.203 2.305-32.163-5.057 43.786-28.084-25.809-40.239-1.393 0.894c-7.635 4.897-14.248 10.25-19.659 15.91l-2.202 2.305-32.164-5.057 70.266-45.068 5.693-20.24 26.75 4.99a1954.297 1954.297 0 0 0-10.748-15.71l-6.462-9.345 26.532-0.502 73.574-47.19 2.15-14.347 34.7 1.65-6.514 14.873 23.194 36.163c11.254 17.55 20.428 31.168 27.262 40.48l2.588 3.525-16.654 23.76-7.987-12.455-23.289 14.937 16.251 25.338 19.946-12.793 5.692-20.241 45.993 8.584-61.865 39.68 15.19 23.68 32.061-20.563 6.09-21.658 47.491 8.784-139.72 89.615c-7.633 4.897-14.247 10.25-19.658 15.91l-2.203 2.306-32.162-5.06 86.655-55.578-15.188-23.68-15.373 9.86c-7.638 4.9-14.251 10.252-19.657 15.908l-2.204 2.307-16.732-2.632a2334.61 2334.61 0 0 0-45.533 66.505l-4.742 16.86z m-13.986-18.221l5.835 2.174 1.673-5.944 0.522-0.791c3.031-4.6 6.08-9.192 9.147-13.773-4.55 5.008-10.286 11.133-17.177 18.334z m-12.726-95.862l40.065 62.467 1.347-1.979-71.74-111.85-1.855 1.189 32.183 50.173z m18.695 2.49l25.726 40.108 29.481-34.576 8.073 7.169 39.212-25.15-16.251-25.338-24.222 15.535 4.373 6.819-17.67 22.247-4.514-7.604a1924.281 1924.281 0 0 0-11.965-19.888l-32.243 20.678z m119.333-8.769l21.56 33.615 0.923-0.59-97.49-152.001-0.924 0.592 75.931 118.384z m76.435-6.735l-1.768 6.29 8.006-5.136-6.238-1.154z m-153.264-11.757c2.544 4.168 5.098 8.391 7.658 12.661l1.261-1.59-7.63-11.897-1.29 0.826z m-78.08-28.206l25.808 40.238 2.24-1.436 5.695-20.24 27.216 5.078a1601.53 1601.53 0 0 0-13.057-20.71 1639.107 1639.107 0 0 0-15.506-23.707l-32.396 20.777z m42.46 32.589l-1.367 4.857 6.174-3.961-4.808-0.896z m34.675-5.93l2.011 0.375-35.353-55.12-1.135 0.727a1653.42 1653.42 0 0 1 15.506 23.708 1673.748 1673.748 0 0 1 18.971 30.31z m-5.027-33.18l15.72 24.51 24.22-15.536-15.72-24.51-24.22 15.536z m121.76 16.778l-1.366 4.857 6.174-3.96-4.807-0.897z m-76.095-46.068l15.721 24.51 23.289-14.938-15.721-24.509-23.289 14.937zM668.922 314.96l-1.367 4.857 6.174-3.96-4.807-0.897z m165.321-1.892l2.78 4.334 1.22-1.74c-6.67-9.314-14.927-21.66-25.127-37.563l-26.718-41.656 2.026-4.624-6.003-0.286-0.098 0.656 0.031-0.02 51.889 80.9zM709.72 293.233l14.656 22.854 24.222-15.536L733.94 277.7l-24.221 15.534z m-5.971 15.824l1.859 0.347-10.786-16.818-2.169 0.042c3.778 5.53 7.479 11.011 11.096 16.429z m51.636-45.112l14.657 22.853 23.289-14.937-14.657-22.853-23.289 14.937z" p-id="11837" fill="#67C23A"></path></svg>
