<?xml version="1.0" standalone="no"?><!DOCTYPE svg PUBLIC "-//W3C//DTD SVG 1.1//EN" "http://www.w3.org/Graphics/SVG/1.1/DTD/svg11.dtd"><svg t="1724053263798" class="icon" viewBox="0 0 1024 1024" version="1.1" xmlns="http://www.w3.org/2000/svg" p-id="5476" xmlns:xlink="http://www.w3.org/1999/xlink" width="200" height="200"><path d="M567.296 235.52l20.992 2.048 14.336 16.384 7.68-19.456 19.456-7.68-16.384-14.336-2.048-20.992-17.92 10.752-20.48-5.632 5.632 20.48-11.264 18.432m0 0zM795.648 432.128v21.504l18.432-9.728 19.456 6.656-3.072-21.504 12.288-17.408-20.48-3.584-12.288-17.92-9.216 18.944-19.456 6.656 14.336 16.384m0 0zM693.76 295.936l18.432 10.24 6.656 20.48 14.848-14.848 20.992 0.512-9.728-19.456 6.144-20.48-20.48 2.56-16.896-13.312-3.072 20.992-16.896 13.312m0 0zM448.512 226.304v20.48l19.456-8.704 20.48 7.168-3.072-20.48 12.8-16.384-21.504-4.096-12.8-16.896-9.728 17.92-20.48 5.632 14.848 15.36m0 0zM448 799.232l-20.992-2.048-13.824-16.384-7.68 19.456-19.456 7.68 16.384 13.824 2.048 20.992 17.92-10.752 20.48 5.12-5.12-20.48 10.24-17.408m0 0zM329.728 732.16l-18.432-10.24-6.656-20.48-14.848 14.848-20.48-0.512 9.216 19.456-6.144 19.968 20.48-2.56 16.896 12.8 3.072-20.992 16.896-12.288m0 0zM234.496 604.16v-21.504l-18.432 9.728-19.456-6.656 3.072 21.504-12.288 17.408 20.48 3.584 11.776 17.408 9.728-18.944 19.456-6.656-14.336-15.872m0 0z" p-id="5477" fill="#67C23A"></path><path d="M828.416 193.536c-174.592-174.592-458.24-174.592-632.32 0-174.592 174.592-174.592 458.24 0 632.32 174.592 174.592 458.24 174.592 632.32 0 174.08-174.08 174.08-457.728 0-632.32M216.576 804.864c-162.816-162.816-162.816-427.52 0-590.336 162.816-162.816 427.52-162.816 590.336 0 162.816 162.816 162.816 427.52 0 590.336-162.304 162.816-427.52 162.816-590.336 0m0 0z" p-id="5478" fill="#67C23A"></path><path d="M777.216 244.736c-146.432-146.432-384-146.432-530.432 0-146.432 146.432-146.432 384 0 530.432 146.432 146.432 384 146.432 530.432 0 146.432-146.432 146.432-384.512 0-530.432M259.072 762.88c-139.776-139.776-139.776-366.592 0-506.368 139.776-139.776 366.592-139.776 506.368 0 139.776 139.776 139.776 366.592 0 506.368a355.60448 355.60448 0 0 1-183.296 97.792l8.704-18.432 19.968-7.168-15.872-13.824-1.536-20.48-18.432 10.24-20.992-5.632 4.608 19.968-11.776 17.408 21.504 2.048 13.312 15.872c-113.152 22.528-235.008-10.24-322.56-97.792m0 0z" p-id="5479" fill="#67C23A"></path><path d="M666.112 355.84c35.328 35.328 57.856 82.432 62.976 132.608l14.848-1.536c-5.12-53.248-29.184-103.424-67.072-141.312-79.36-78.848-203.264-90.624-295.424-28.16l8.192 12.288c86.528-58.88 202.752-47.616 276.48 26.112m0 0zM357.888 663.552c-35.328-35.328-57.856-82.432-62.464-132.608l-14.848 1.536c5.12 53.248 29.184 103.424 67.072 141.312 78.848 78.848 202.752 90.624 294.912 28.16l-8.192-12.288c-86.528 58.88-202.752 48.128-276.48-26.112m0 0zM499.2 529.92c0-2.56-0.512-4.608-1.536-6.144-1.024-1.536-4.096-3.584-9.728-0.512-0.512 0-1.024 0.512-1.024 1.024-13.312 25.088-19.968 29.696-22.528 30.72h-0.512c-5.12-8.704-6.656-24.576-5.12-47.104 20.992-11.264 38.912-24.576 53.248-39.424 0.512-0.512 0.512-1.024 0.512-1.536 0.512-3.072 0-5.12-1.024-6.656-1.536-2.048-4.608-3.072-8.704-2.048-0.512 0-1.024 0.512-1.024 0.512-10.752 11.776-24.064 22.016-39.936 30.72 5.12-19.968 13.824-41.984 25.088-65.024l38.912 23.04c0 4.096-0.512 8.704-0.512 13.824 0 0.512 0 1.024 0.512 1.024 2.048 3.584 4.096 5.12 6.656 5.12 2.048 0 4.096-1.536 6.144-5.12 0-0.512 0.512-0.512 0.512-1.024 1.536-15.872 2.048-31.232 1.024-45.568 0-0.512-0.512-1.024-1.024-1.536-2.56-2.048-4.608-3.072-7.168-2.56-2.048 0.512-4.096 2.048-5.632 4.608 0 0.512-0.512 1.024-0.512 1.536l0.512 14.336-33.28-19.456 9.728-18.944c0-0.512 0.512-0.512 0.512-1.024 0-2.56-0.512-4.608-1.536-6.144-1.024-1.536-4.096-3.584-9.728-0.512-0.512 0-1.024 0.512-1.024 1.024l-9.216 18.432-53.248-31.232c-6.144-3.584-12.288-5.12-17.408-4.096-5.12 1.024-9.728 4.608-13.312 10.752L373.76 423.936c-13.312 24.064-30.208 42.496-49.664 53.76-0.512 0-0.512 0.512-1.024 1.024-2.048 3.584-2.56 6.656-1.024 8.704 1.536 1.536 3.584 2.56 7.168 2.56h1.024c12.288-5.632 24.064-14.848 35.328-28.16-0.512 1.536-1.024 3.072-1.536 5.632 0 0.512 0 1.024 0.512 1.536 12.288 19.456 23.04 29.184 33.28 29.184 5.632 0 10.752-3.072 15.36-9.216l24.064-34.816c5.632-8.192 6.144-15.872 1.536-22.016-2.048-2.56-4.608-4.608-8.192-6.656l-30.72-17.92 9.216-15.36c1.536-2.56 3.584-4.608 5.632-5.12 2.048-0.512 4.608 0 7.168 1.536L475.136 419.84c-14.336 28.16-24.064 54.272-29.184 77.312-20.992 5.632-43.52 7.168-66.56 4.608h-1.024c-3.584 1.536-5.632 3.072-6.144 5.12-0.512 1.024-0.512 3.072 1.024 5.632 0.512 1.024 1.536 1.536 2.56 2.56 0.512 0.512 1.024 0.512 1.536 0.512 25.088 3.072 48.128 2.048 67.584-3.584-1.536 23.552 1.024 40.96 7.168 52.736 0 0 0 0.512 0.512 0.512 4.608 5.632 9.728 7.68 14.336 6.144 8.704-2.048 19.456-14.848 32.256-38.912v-2.56z m-131.072-71.68c-0.512 0-0.512 0.512-1.024 0.512 6.144-8.192 12.288-17.408 18.432-28.16l7.68-12.8 28.16 16.384c2.048 1.024 3.584 2.56 4.608 3.584 1.024 1.536 2.048 4.096-1.024 8.704l-22.528 32.256c-2.048 3.072-3.584 3.584-4.096 3.584-2.048 0-6.144-1.024-13.824-11.264-2.048-3.072-4.608-6.656-7.168-10.752 0-0.512-0.512-0.512-1.024-1.024-3.584-1.536-6.144-2.048-8.192-1.024zM569.344 583.168c4.096-2.048 6.144-3.584 6.656-6.144 0.512-1.024 0.512-2.56-1.024-4.608-0.512-1.024-2.048-2.048-3.584-3.072-0.512 0-1.024-0.512-1.024-0.512-7.168 0-16.384-0.512-28.672-2.048l53.248-90.112 23.04 13.312c0.512 0.512 1.024 0.512 1.536 0.512 3.072-0.512 5.632-1.536 6.656-3.584 1.024-2.048 1.024-4.608 0-7.68 0-0.512-0.512-1.024-1.024-1.024l-52.736-31.232c-0.512-0.512-1.024-0.512-1.536-0.512-3.072 0.512-5.632 1.536-6.656 3.584-1.024 2.048-1.024 4.608 0 7.68 0 0.512 0.512 1.024 1.024 1.024l17.92 10.752-56.32 95.744c-7.68-1.536-15.872-3.072-24.064-4.608h-1.536c-3.584 1.536-5.632 3.072-6.144 5.12-0.512 1.024-0.512 3.072 1.024 5.632 0.512 1.024 1.536 1.536 2.56 2.56 0.512 0.512 0.512 0.512 1.024 0.512 20.992 4.608 44.032 7.168 68.608 8.192 0.512 0.512 1.024 0.512 1.024 0.512z" p-id="5480" fill="#67C23A"></path><path d="M637.44 646.144c11.776-10.24 31.232-39.424 59.392-89.088 6.144-8.704 3.584-14.848 1.024-18.944-2.048-2.56-4.608-5.12-8.704-7.168l-25.6-14.848 11.264-19.456c0-0.512 0.512-1.024 0.512-1.024 0-2.56-0.512-4.608-1.536-6.144-1.024-1.536-4.096-3.584-9.728-0.512-0.512 0-0.512 0.512-1.024 1.024l-11.264 19.456-29.184-17.408c-0.512-0.512-1.024-0.512-1.536-0.512-3.072 0.512-5.632 1.536-6.656 3.584-1.024 2.048-1.024 4.608 0 7.68 0 0.512 0.512 1.024 1.024 1.024l29.184 17.408c-30.208 48.128-69.12 72.192-115.712 72.192-0.512 0-1.024 0-1.024 0.512-3.072 1.536-4.608 3.072-5.12 5.12 0 1.024 0 2.56 1.024 4.608 1.024 1.024 2.048 2.048 3.584 3.072 0.512 0 1.024 0.512 1.024 0.512 51.712 0 94.72-26.112 127.488-78.848l24.064 14.336c2.048 1.024 3.584 2.56 4.096 3.584 1.024 1.536 1.536 3.072-0.512 5.632l-0.512 0.512c-25.088 44.544-44.032 72.704-56.32 84.48-4.096 3.584-8.192 5.12-12.8 5.12-7.68-0.512-16.896-7.168-27.136-19.968l-1.024-1.024c-3.584-1.536-6.144-1.536-8.192 0-2.048 1.536-2.56 4.608-2.048 8.704 0 0.512 0 1.024 0.512 1.024 7.168 9.216 16.384 16.384 26.624 22.528h0.512c13.312 3.584 24.576 1.536 34.304-7.168z" p-id="5481" fill="#67C23A"></path></svg>
