<?xml version="1.0" standalone="no"?><!DOCTYPE svg PUBLIC "-//W3C//DTD SVG 1.1//EN" "http://www.w3.org/Graphics/SVG/1.1/DTD/svg11.dtd"><svg t="1724049115876" class="icon" viewBox="0 0 1024 1024" version="1.1" xmlns="http://www.w3.org/2000/svg" p-id="12048" xmlns:xlink="http://www.w3.org/1999/xlink" width="200" height="200"><path d="M1002.496 371.712l-151.04-238.08c-13.312-20.992-40.96-27.136-61.44-13.824L36.352 596.48c-20.992 13.312-27.136 40.96-13.824 61.44L173.568 896c13.312 20.48 40.96 26.624 61.44 13.824l753.664-476.672c20.992-12.8 27.136-40.448 13.824-61.44z m-29.696 35.84L219.136 884.224c-6.656 4.096-15.36 2.048-19.456-4.608L48.64 642.048c-4.096-6.656-2.048-15.36 4.608-19.456l753.664-476.672c6.656-4.096 15.36-2.048 19.456 4.608l151.04 238.08c3.584 6.144 1.536 14.848-4.608 18.944zM323.072 256.512l12.288 30.208 16.384-28.16L384 256l-22.016-24.064 7.68-31.744-29.696 13.312-27.648-16.896 3.584 32.256-24.576 20.992 31.744 6.656z m192-89.088l-15.36-28.672-13.312 29.696-32.256 6.144 24.064 21.504-4.096 32.256 28.16-16.384 29.184 13.824-6.656-31.744 22.528-23.552-32.256-3.072z m292.352 478.72l-25.6-19.968v32.256l-27.136 18.432 31.232 10.24 9.216 31.232 19.456-26.112 32.768 1.024-18.944-26.624 11.264-30.208-32.256 9.728z m-104.96 129.024l-12.288-30.208-16.384 28.16-32.256 2.56 21.504 24.064-7.68 31.744 29.696-12.8 27.648 17.408-3.072-32.256 24.576-20.992-31.744-7.68z m-193.024 88.064l15.36 28.672 13.312-29.696 32.256-5.632-24.064-22.016 4.608-32.256-28.16 15.872-29.184-14.336 6.656 31.744-22.528 23.552 31.744 4.096zM221.184 382.464l25.6 19.968 0.512-32.256 27.136-17.92-30.72-10.24-8.704-31.232-19.968 25.6-32.768-1.024 18.944 26.624-11.264 30.72c0-0.512 31.232-10.24 31.232-10.24z m-114.688 140.288c-3.584-137.728 63.488-273.408 187.904-352.256 124.416-78.848 275.968-80.896 399.36-19.456l29.696-18.944c-36.352-20.48-75.776-35.328-116.736-44.544-55.296-12.288-111.104-13.824-166.912-4.608-57.344 9.728-111.616 30.208-161.28 61.952-49.664 31.232-91.648 71.68-124.928 119.296-32.256 46.08-54.784 97.792-67.072 152.576-9.216 40.96-12.288 82.944-9.728 124.416l29.696-18.432zM915.968 501.76c3.584 137.728-63.488 273.408-187.904 352.256-124.416 78.848-275.968 80.896-399.36 19.456l-29.696 18.944c36.352 20.48 75.776 35.328 116.736 44.544 55.296 12.288 111.104 13.824 166.912 4.608 57.344-9.728 111.616-30.208 161.28-61.44s91.648-71.68 124.928-119.296c32.256-46.08 54.784-97.792 67.072-152.576 9.216-41.472 12.288-82.944 9.728-124.416l-29.696 17.92zM384.512 312.32c34.816-22.016 73.216-33.792 111.616-36.352l46.08-29.184c-60.928-7.168-121.856 6.656-174.08 39.936S277.504 369.152 258.048 427.008l46.08-29.184C322.56 364.032 349.696 334.336 384.512 312.32z m253.44 399.872c-34.816 22.016-73.216 33.792-111.616 36.352l-46.08 29.184c60.928 7.168 121.344-6.656 174.08-39.936 52.224-33.28 90.624-82.432 110.08-140.288l-46.08 29.184c-18.432 33.792-45.568 63.488-80.384 85.504z" fill="#F56C6C" p-id="12049"></path><path d="M155.136 608.768l26.624-1.536c-4.096 3.584-7.168 15.36-10.24 35.84-2.56 20.992-8.192 41.984-17.408 62.976l-3.584-1.536c4.608-18.432 7.68-36.352 8.192-52.736 1.024-16.896 0-30.72-3.584-43.008z m51.712 80.384l69.12 107.52-10.752 13.824c-7.68-13.824-15.36-26.112-22.528-36.864L202.752 711.68c-3.072 18.432-8.704 36.864-16.384 54.784l-3.584-1.536c6.144-25.6 9.216-49.664 9.216-71.68 0-22.016-1.024-37.376-3.072-46.08l25.6-1.024c-3.072 4.608-6.144 18.432-7.68 43.008z m46.08-93.696c-9.216-14.336-16.896-26.112-23.552-34.816l27.648-6.144-4.608 11.264 13.824 21.504 28.672-18.432 4.608-15.872 25.088 4.096-54.784 35.328 20.992 33.28 46.592-29.696 4.608-16.896 26.112 4.096L247.808 660.48c-8.192 5.12-14.848 10.752-20.992 16.896l-13.312-2.048 63.488-40.448-20.992-33.28-28.16 17.92-11.264 9.216-11.776-2.048 48.128-31.232zM337.92 735.744c17.408-7.168 28.16-12.288 32.768-15.872 4.608-3.072 5.12-7.168 2.56-11.776L335.872 650.24 261.12 697.856l-7.168 7.168-11.776-2.048L332.8 645.632c-4.096-6.144-9.728-14.336-16.896-24.064l27.136-4.608-5.12 10.24 6.656 10.752 12.8-8.192 4.608-16.896 26.112 4.096-40.96 26.112 39.424 61.44c6.144 9.728 4.608 21.504-5.632 34.304-6.144-5.632-19.968-4.608-40.96 1.536l-2.048-4.608z m-59.392-37.376c19.456-1.024 31.744-0.512 35.84 1.536 4.096 2.048 7.168 4.096 9.216 7.168 1.024 1.536 1.536 4.096 2.048 7.168 0.512 3.072-0.512 6.144-3.072 8.704-2.048 2.56-6.656 1.024-13.312-5.12S291.84 706.56 276.48 701.44l2.048-3.072z" fill="#F56C6C" p-id="12050"></path><path d="M264.192 821.76l-4.608-7.68c-7.68-13.824-15.36-26.112-22.528-36.864l-31.744-49.664c-3.072 13.824-7.68 27.648-13.312 40.96l-2.048 5.632-13.824-5.12 1.024-5.12c6.144-25.088 9.216-48.64 9.216-70.144 0-20.992-1.024-36.352-3.072-44.544l-1.536-7.168 47.616-2.048-10.24 10.752c-0.512 0.512-2.048 3.072-4.096 15.36l53.76-34.304-14.848-23.04-22.528 14.336-12.8 10.752-30.208-4.608 55.808-35.84c-7.68-11.776-14.336-21.504-20.48-29.696l-5.632-7.68 48.128-10.752-8.192 18.944 8.704 13.824 22.016-13.824 5.12-18.432 46.08 7.168-62.464 40.96 14.848 23.04 39.424-25.6 5.632-19.968 47.616 7.68-53.248 33.792 22.016-3.584-9.216 17.92 1.536 2.56 6.144-3.584 5.632-19.968 47.616 7.68-49.152 31.744 35.84 56.32c5.632 8.704 8.704 22.528-6.144 40.96l-4.096 5.12-4.608-4.096c-1.536-1.536-4.608-2.048-8.704-2.048-6.656 0-15.36 1.536-26.112 5.12l-4.608 1.536-9.216-14.336 6.656-2.56c20.992-8.704 28.672-12.8 31.232-14.848 2.048-1.536 2.048-2.048 1.024-3.072l-33.792-52.736-51.2 32.768h11.776c14.336 0 19.456 1.536 22.016 2.56 5.632 2.56 9.216 5.632 11.776 9.216 1.536 2.56 2.56 5.632 3.072 10.24 0.512 5.12-1.024 9.728-4.096 13.312-2.048 2.048-4.608 3.072-7.168 3.072-4.096 0-8.704-2.56-14.336-7.68-5.632-5.12-15.872-10.24-30.72-14.848l-6.656-2.048 2.56-5.632-5.632 3.584-9.216 8.704-30.72-4.608 98.816-63.488c-3.584-5.12-7.68-10.752-12.8-18.432l-59.904 38.4c-7.68 5.12-14.336 10.24-19.456 15.872l-2.048 2.56-15.872-2.56c0 2.56-0.512 4.608-0.512 7.68l70.144 109.568-19.456 22.528z m-65.024-126.464l48.128 75.264c5.632 8.704 11.776 18.432 17.92 29.696l2.56-3.584L200.192 691.2v-2.048c0.512-3.584 0.512-7.168 1.024-10.752l-3.072-0.512v22.528l1.024-5.12z m169.472 33.28c4.096 0 8.192 0.512 11.264 2.048 7.68-11.776 5.12-18.432 2.56-23.04l-51.2-79.872 1.536-2.56-5.632 1.024c4.608 6.656 8.192 11.776 11.264 16.384l40.448 62.976c4.608 7.168 3.072 14.336-4.096 19.968-2.048 0.512-3.584 1.536-6.144 3.072z m-69.632-24.576c6.144 3.072 10.752 6.144 14.336 9.728 2.56 2.56 4.096 3.584 5.12 4.096 0.512-1.024 0.512-1.536 0.512-3.072-0.512-3.072-1.024-4.608-1.024-4.608-1.024-1.536-3.072-3.584-6.656-4.608-0.512-0.512-3.072-1.536-12.288-1.536z m-102.4-50.688c1.024 6.144 1.536 13.824 1.536 23.04l3.584-2.048c1.024-9.728 2.048-16.896 3.584-21.504l-8.704 0.512z m65.024-56.32l20.992 32.768 2.56-1.536-39.936-61.952 1.536-3.072-7.168 1.536c5.632 7.68 11.776 16.896 18.432 27.648l3.584 4.608z m105.472 22.528l-1.536 5.12 6.656-4.096-5.12-1.024z m-20.992-34.816l-1.536 5.12 6.656-4.096-5.12-1.024z m-42.496-25.088l-1.024 3.584 4.608-3.072-3.584-0.512z m-146.432 153.6l-13.824-5.12 1.536-5.12c4.608-17.92 7.168-35.328 8.192-51.712 1.024-15.872-0.512-29.696-3.584-40.96l-2.048-7.168 52.736-3.584-14.336 11.776c-0.512 0.512-4.096 4.608-7.68 31.744-2.56 21.504-8.704 43.008-17.92 64.512l-3.072 5.632z m5.632-98.816c2.048 9.216 2.56 19.456 2.56 31.232 0-1.024 0.512-2.56 0.512-3.584 1.536-13.312 3.584-22.016 5.632-28.16l-8.704 0.512z" fill="#F56C6C" p-id="12051"></path><path d="M499.2 468.992l-6.144 10.752c3.072 14.336 6.656 29.696 10.752 45.568 4.608 16.384 7.68 34.816 9.216 54.784 13.312 3.072 30.72 1.536 52.736-5.12 21.504-6.656 55.808-25.6 102.4-56.832l1.536 2.56c-8.192 10.24-11.264 18.432-8.704 25.6-39.424 23.04-69.632 37.376-90.624 43.008-20.992 5.632-40.96 6.656-59.904 3.072-2.048 10.752-6.144 23.04-12.288 37.376s-15.872 29.184-29.184 45.568l-3.584-1.536c10.24-15.872 17.408-31.232 22.528-45.568 5.12-14.336 8.704-28.16 10.24-39.936-26.112-12.288-46.592-27.136-61.44-44.544 2.56 24.576 2.048 48.128-2.048 70.144h-5.12c1.536-30.72-2.048-60.928-11.264-91.136-8.704-30.208-15.872-50.176-21.504-59.904l26.624-5.632c-0.512 4.608-1.024 9.216-0.512 14.336 0.512 5.12 2.56 16.896 6.656 34.304l39.936-25.6 4.608-15.872 25.088 4.608z m-67.584 43.52c1.536 8.192 3.584 16.384 5.12 24.576 20.48 17.92 40.96 30.72 60.928 37.888-2.048-26.624-10.24-56.832-23.552-90.112l-42.496 27.648z m102.4-58.88l40.448 62.976c5.12 8.192 11.264 16.896 17.92 26.112l-11.264 15.36c-6.144-11.264-12.8-22.016-19.968-32.768L504.32 435.2c-4.608-7.168-11.264-17.408-20.48-30.208l27.648-3.584-3.584 10.752 24.064 37.376c24.064-6.144 43.52-9.216 57.856-9.728 14.336 0 22.528 3.072 24.576 10.752 2.048 7.168 2.048 11.264 0 12.8-2.56 1.536-6.144 1.024-11.776-2.048-12.288-5.12-34.816-7.68-68.608-7.68z" fill="#F56C6C" p-id="12052"></path><path d="M470.528 682.496l-14.848-5.632 4.096-6.144c9.728-15.36 17.408-30.208 22.016-44.544 4.096-12.288 7.68-24.064 9.216-34.304-18.432-9.216-34.304-19.456-47.104-31.744 1.024 18.944-0.512 37.376-3.584 54.784l-1.024 5.12-16.896-0.512 0.512-6.144c1.536-29.696-2.048-59.904-10.752-89.088-8.704-29.696-15.872-49.152-20.992-58.88l-4.096-7.168 43.52-8.704-0.512 9.216c-0.512 4.096-1.024 8.192-0.512 13.312 0 3.072 1.024 9.728 4.608 24.576l30.72-19.968 5.12-18.432 38.912 6.144-9.216 16.384c3.072 13.824 6.656 28.16 10.24 43.008 4.096 15.36 7.168 32.768 8.704 51.2 11.776 1.536 27.136-0.512 45.056-5.632 4.096-1.024 8.704-3.072 14.336-5.12l-2.048-3.584c-6.144-11.264-12.8-22.016-19.456-32.768L499.2 438.784c-4.608-7.168-11.264-16.896-20.48-29.696l-5.632-8.192 47.616-6.656-6.144 17.408 19.968 31.232c22.528-5.632 40.96-8.192 54.784-8.704h1.536c16.384 0 26.112 5.12 29.184 14.848 2.048 7.68 3.584 15.872-2.56 19.456-2.048 1.024-4.096 2.048-6.656 2.048-3.072 0-6.656-1.024-11.264-3.072-9.728-4.096-28.16-6.144-54.272-7.168l34.304 53.248c5.12 8.192 11.264 16.896 17.92 25.6l2.56 3.584-12.8 17.92c19.968-9.728 45.568-25.088 77.312-46.592l5.12-3.584 7.168 11.264-3.072 3.584c-4.608 5.632-9.728 13.824-7.68 19.456l2.048 4.608-4.608 2.56c-39.936 23.04-70.656 37.888-92.16 43.52-13.312 3.584-26.624 5.632-39.424 5.632-5.632 0-11.776-0.512-17.408-1.024-2.56 9.728-6.144 20.48-11.776 32.768-6.656 14.336-16.384 30.208-30.208 47.104l-2.048 2.56z m27.648-100.864l3.072 1.536 4.096 2.048-0.512 4.608c-0.512 2.56-1.024 4.608-1.024 7.168 0.512-1.536 0.512-3.584 1.024-5.12l1.024-6.144 6.144 1.024c6.656 1.024 13.824 2.048 20.992 2.048 11.776 0 23.552-1.536 36.352-5.12 19.456-5.12 48.64-18.944 85.504-39.936-0.512-3.072 0-5.632 1.024-8.704-38.912 25.6-67.584 40.448-87.552 46.592-15.36 4.608-28.672 6.656-39.936 6.656-5.632 0-10.752-0.512-15.872-1.536l-4.608-1.024-0.512-4.608c-1.536-19.456-4.608-37.888-8.704-53.76-4.096-15.872-7.68-31.232-10.752-46.08l-0.512-2.048 3.072-5.12-10.752-1.536-1.536 5.12 2.56 5.632c13.824 33.792 21.504 64.512 24.064 91.648l1.024 9.216c-1.024-0.512-7.68-2.56-7.68-2.56z m-55.808-47.616c15.872 14.336 32.256 24.576 48.64 31.744-3.072-21.504-9.216-45.568-19.456-71.68l-33.28 20.992c1.024 6.144 2.56 12.8 4.096 18.944z m-36.352-66.56c5.12 11.264 11.264 29.184 18.432 53.76 3.072 10.752 5.632 21.504 7.68 32.768 0-3.072-0.512-6.144-1.024-9.216l-1.024-9.728c-1.536-6.656-3.072-13.824-4.608-20.48l-1.024-4.608-0.512-2.048c-4.608-17.92-6.656-29.696-7.168-35.328v-7.168c0.512 0-10.752 2.048-10.752 2.048z m88.576-57.344c6.656 9.216 11.264 16.384 14.848 22.016l57.344 89.6c5.12 8.192 10.24 16.384 15.36 25.088l3.072-4.096c-5.632-7.68-10.752-15.36-15.36-22.528l-69.12-107.52 1.536-4.096-7.68 1.536z m70.144 38.4c18.432 1.024 31.744 3.584 39.936 7.168l0.512 0.512c1.536 1.024 3.072 1.536 4.096 1.536 0-1.024-0.512-3.072-1.024-5.632-1.536-5.12-10.24-6.144-17.408-6.144h-1.024c-7.168 0-15.872 1.024-25.088 2.56z" fill="#F56C6C" p-id="12053"></path><path d="M680.96 488.96c15.872-16.384 26.624-27.648 31.744-34.304l-35.84-55.296-4.608 3.072c-8.192 5.12-14.848 10.752-20.992 16.896l-13.312-2.048 35.328-22.528-32.256-50.688-6.144 4.096c-8.192 5.12-14.848 10.752-20.992 16.896l-13.312-2.048 58.88-37.888 4.608-16.896 25.6 4.608-36.352 23.552 32.256 50.688 9.216-6.144 4.608-16.896 25.6 4.608-36.352 23.552 33.28 52.224 30.72-36.352 3.072 2.56c-17.92 24.576-34.816 49.664-51.712 75.264L701.44 496.64l-20.48-7.68z m66.048-99.328c-10.752-17.92-21.504-35.328-31.744-51.712-10.752-16.384-22.016-33.28-33.792-50.688l16.896-0.512 77.312-49.664 1.536-11.776 20.48 1.024-4.096 9.728 25.088 38.912c11.264 17.92 20.48 31.232 27.648 40.96l-8.704 12.8-6.144-9.728-33.792 21.504 23.04 35.84 27.136-17.408 4.608-16.896 25.6 4.608-54.272 34.816 22.016 33.792 38.912-25.088 5.12-18.432 26.624 5.12-126.976 81.408c-8.192 5.12-14.848 10.752-20.992 16.896l-13.312-2.048 78.336-50.176-22.016-33.792-20.48 13.312c-8.192 5.12-14.848 10.752-20.992 16.896l-13.312-2.048 51.2-32.768-23.04-35.84-34.304 22.016 5.12 8.192-8.704 10.752zM701.44 291.328l20.992 33.28 34.304-22.016-20.992-33.28-34.304 22.016z m24.064 38.4l22.528 34.816 34.304-22.016-22.528-34.816-34.304 22.016z m21.504-67.584l20.992 33.28 33.792-21.504-20.992-33.28-33.792 21.504z m24.576 37.888l22.528 34.816 33.792-21.504-22.528-34.816-33.792 21.504z" fill="#F56C6C" p-id="12054"></path><path d="M705.536 504.832l-35.84-13.312 6.656-6.656c13.312-13.824 22.528-24.064 28.672-30.72l-29.696-46.592c-7.68 4.608-13.824 10.24-18.944 15.36l-2.048 2.56-32.256-5.12 44.032-28.16-25.6-40.448-1.536 1.024c-7.68 5.12-14.336 10.24-19.456 15.872l-2.048 2.56-32.256-5.12 70.144-45.056 5.632-20.48 26.624 5.12c-3.584-5.12-7.168-10.24-10.752-15.872l-6.656-9.216 26.624-0.512 73.728-47.104 2.048-14.336 34.816 1.536-6.656 14.848 23.04 36.352c11.264 17.408 20.48 31.232 27.136 40.448l2.56 3.584-16.896 23.552-8.192-12.288-23.04 14.848 16.384 25.088 19.968-12.8 5.632-20.48 46.08 8.704-61.952 39.936 15.36 23.552 32.256-20.48 6.144-21.504 47.616 8.704-139.776 89.6c-7.68 5.12-14.336 10.24-19.456 15.872l-2.048 2.56-32.256-5.12L824.832 419.84l-15.36-23.552-15.36 9.728c-7.68 5.12-14.336 10.24-19.456 15.872l-2.048 2.56-16.896-2.56c-15.36 22.016-30.72 44.032-45.568 66.56l-4.608 16.384z m-13.824-17.92l5.632 2.048 1.536-6.144 0.512-1.024 9.216-13.824c-4.096 5.632-10.24 11.264-16.896 18.944z m-12.8-96.256l39.936 62.464 1.536-2.048-71.68-111.616-2.048 1.024 32.256 50.176z m18.944 2.56l25.6 39.936 29.696-34.816 8.192 7.168 39.424-25.088-16.384-25.088-24.064 15.36 4.608 6.656-17.92 22.016-4.608-7.68c-4.096-6.656-8.192-13.312-11.776-19.968-0.512 1.024-32.768 21.504-32.768 21.504z m119.296-8.704l21.504 33.792 1.024-0.512-97.28-152.064-1.024 0.512 75.776 118.272z m76.288-6.656l-1.536 6.144 8.192-5.12-6.656-1.024z m-153.088-11.776c2.56 4.096 5.12 8.192 7.68 12.8l1.024-1.536-7.68-11.776-1.024 0.512zM662.016 337.92l25.6 40.448 2.048-1.536 5.632-20.48 27.136 5.12c-4.096-7.168-8.704-13.824-13.312-20.48-5.12-8.192-10.24-15.872-15.36-23.552l-31.744 20.48z m42.496 32.256l-1.536 4.608 6.144-4.096-4.608-0.512z m34.816-5.632l2.048 0.512-35.328-55.296-1.024 0.512c5.12 7.68 10.24 15.872 15.36 23.552 6.144 10.24 12.8 20.48 18.944 30.72z m-5.12-33.28l15.872 24.576 24.064-15.36-15.872-24.576-24.064 15.36z m121.856 16.896l-1.536 4.608 6.144-4.096-4.608-0.512z m-76.288-46.08l15.872 24.576 23.04-14.848-15.872-24.576-23.04 14.848z m-111.104 12.8l-1.536 4.608 6.144-4.096-4.608-0.512z m165.376-2.048l2.56 4.096 1.024-1.536c-6.656-9.216-14.848-21.504-25.088-37.376l-26.624-41.472 2.048-4.608-6.144-0.512v0.512c0.512 0 52.224 80.896 52.224 80.896z m-124.416-19.456l14.848 23.04 24.064-15.36-14.848-23.04-24.064 15.36z m-5.632 15.872l2.048 0.512-10.752-16.896h-2.048c3.072 5.12 6.656 10.752 10.752 16.384z m51.2-45.056l14.848 23.04 23.04-14.848-14.848-23.04-23.04 14.848z" fill="#F56C6C" p-id="12055"></path></svg>
