<?xml version="1.0" standalone="no"?><!DOCTYPE svg PUBLIC "-//W3C//DTD SVG 1.1//EN" "http://www.w3.org/Graphics/SVG/1.1/DTD/svg11.dtd"><svg t="1723638157973" class="icon" viewBox="0 0 1058 1024" version="1.1" xmlns="http://www.w3.org/2000/svg" p-id="32989" xmlns:xlink="http://www.w3.org/1999/xlink" width="206.640625" height="200"><path d="M1018.128 7.593H267.49a32.45 32.45 0 0 0-33.006 31.943v234.486H40.6a32.45 32.45 0 0 0-33.007 31.943v678.347a32.45 32.45 0 0 0 33.007 31.943h701.177a32.45 32.45 0 0 0 33.006-31.943V797.868h243.345a32.45 32.45 0 0 0 33.006-31.944V39.486a32.45 32.45 0 0 0-33.006-31.893z m-32.956 726.59H480.614a31.943 31.943 0 1 0 0 63.887H708.77v154.653H73.606V337.857h160.727v218.236a33.006 33.006 0 0 0 65.81 0V71.429h685.03v662.755z" p-id="32990"></path><path d="M291.588 710.138l43.333 43.333 439.204-439.103v291.386h61.305v-397.44H437.99v61.304h294.27z" p-id="32991"></path></svg>