<?xml version="1.0" standalone="no"?><!DOCTYPE svg PUBLIC "-//W3C//DTD SVG 1.1//EN" "http://www.w3.org/Graphics/SVG/1.1/DTD/svg11.dtd"><svg t="1723631680386" class="icon" viewBox="0 0 1024 1024" version="1.1" xmlns="http://www.w3.org/2000/svg" p-id="4192" xmlns:xlink="http://www.w3.org/1999/xlink" width="200" height="200"><path d="M692.8 0 0 692.8l0 0L331.2 1024 1024 331.2 692.8 0zM331.2 933.5 90.5 692.8l60-60 115.4 115.4 45.3-45.3L195.8 587.5l63.6-63.6 115.4 115.4 45.3-45.3L304.7 478.6l63.6-63.6 115.4 115.4 45.3-45.3L413.6 369.7l65.1-65.1L594 420.1l45.3-45.3L523.9 259.4l65.1-65.1 115.4 115.4 45.3-45.3L634.2 149.1l58.6-58.6 240.7 240.7L331.2 933.5z" p-id="4193"></path></svg>
