<?xml version="1.0" standalone="no"?><!DOCTYPE svg PUBLIC "-//W3C//DTD SVG 1.1//EN" "http://www.w3.org/Graphics/SVG/1.1/DTD/svg11.dtd"><svg t="1723632703980" class="icon" viewBox="0 0 1080 1024" version="1.1" xmlns="http://www.w3.org/2000/svg" p-id="16459" xmlns:xlink="http://www.w3.org/1999/xlink" width="210.9375" height="200"><path d="M113.664 966.656c-31.232 0-56.832-25.6-56.832-56.832V113.664c0-31.232 25.6-56.832 56.832-56.832h796.16c31.232 0 56.832 25.6 56.832 56.832v397.824h50.176l6.656 12.288V113.664C1023.488 50.688 972.8 0 909.824 0H113.664C50.688 0 0 50.688 0 113.664v796.16c0 62.976 50.688 113.664 113.664 113.664h482.816l-32.256-56.832h-450.56zM450.56 301.056c-5.12 2.56-9.728 5.12-14.336 7.68-6.144 4.096-8.192 11.776-4.096 18.432 2.56 4.096 6.656 6.144 10.752 6.144 2.56 0 4.608-0.512 6.656-2.048 3.584-2.56 7.68-4.608 11.776-6.656 6.656-3.072 9.216-11.264 6.144-17.408-2.56-6.144-10.24-9.216-16.896-6.144z m-53.248 44.544C378.88 370.688 368.64 400.896 368.64 432.64v132.096c0 7.168 5.632 13.312 12.8 13.312s12.8-6.144 12.8-13.312V432.64c0-26.112 8.192-50.688 23.552-71.168 4.096-5.632 3.072-14.336-2.56-18.432-5.12-4.608-13.312-3.584-17.92 2.56z m348.16 165.888V417.28c0-97.28-77.824-187.392-175.104-214.016v-1.536c0-32.768-26.112-59.392-58.368-59.392h-0.512-0.512c-32.256 0-58.368 26.624-58.368 59.392v1.536c-96.768 26.624-175.104 116.736-175.104 214.016v200.192c0 75.776-52.224 100.864-64 105.984-8.704 4.608-14.848 13.824-14.848 24.576 0 15.36 12.288 27.648 27.136 27.648h284.672l30.208-52.736H296.448c18.944-25.088 33.792-59.904 33.792-105.472V447.488h0.512v-30.72c0-87.04 88.064-169.472 181.248-169.472s181.248 82.432 181.248 169.472v30.72h0.512v64h51.712zM476.16 795.136c-0.512-2.56-2.56-4.608-5.12-5.632 0 0.512-0.512 0.512-0.512 1.024-1.024-1.024-2.56-1.536-4.096-1.536h-36.864c-4.096 0-6.656 3.072-7.168 7.168 3.584 47.616 42.496 85.504 90.112 85.504H517.12L483.328 824.32l4.096-7.168c-5.632-5.632-10.24-13.312-11.264-22.016z m476.672-226.304h-256l-128 227.328 128 227.328h256l128-227.328-128-227.328z m-28.672 397.824h-199.168l-99.328-170.496 99.328-170.496h199.168l99.328 170.496-99.328 170.496z m-99.328-256c-47.104 0-85.504 38.4-85.504 85.504s38.4 85.504 85.504 85.504 85.504-38.4 85.504-85.504c-0.512-47.104-38.4-85.504-85.504-85.504z" p-id="16460" fill="#1890FF"></path></svg>
